<svg viewBox="0 0 504 228" xmlns="http://www.w3.org/2000/svg" class="logo-icon" fill="currentColor">
    <path d="M109.537 64.0966V33.0608C92.8216 30.9296 80.6856 45.7957 78.2372 61.9653C70.7648 58.8283 62.7387 57.2231 54.6345 57.2448C24.6908 57.2448 6.88311 76.3383 7.07686 103.393C6.93067 112.11 9.33023 120.68 13.9815 128.053C5.75581 140.524 0.718231 152.994 0.189812 163.598C-0.338607 176.861 5.22741 187.993 27.2448 190.917L66.7705 196.201C76.8457 197.522 80.0339 201.239 80.0339 206.012C80.0339 214.502 68.0916 225.388 49.7907 226.18V227.766C74.7144 226.973 105.75 216.633 106.825 192.221C107.353 178.429 98.3347 168.354 78.6423 165.694L29.6932 159.406C16.4299 157.803 12.1849 151.444 12.1849 142.954C12.2944 138.484 13.5044 134.11 15.7077 130.219C23.9334 141.105 37.4609 147.728 54.1766 147.463C84.9481 147.728 103.249 128.088 102.985 100.786C103.2 93.0124 101.193 85.3383 97.199 78.6648C93.2056 71.9913 87.3914 66.5954 80.439 63.1103C89.7215 56.7516 101.382 59.1471 109.608 64.1847M55.4976 143.219C44.6298 143.219 37.1967 125.974 37.1967 101.579C37.1967 77.9764 45.1582 61.2608 54.9692 61.2608C66.1012 61.2608 73.0059 77.9764 73.0059 101.579C73.0059 125.974 65.5728 143.219 55.4976 143.219ZM122.431 200.253H151.969V37.2324L151.966 0.646987L122.426 0.646973L122.431 200.253ZM270.969 132.087C270.969 97.5984 252.668 57.5442 217.387 57.5442C182.477 57.4562 163.471 97.5103 163.471 131.47C163.471 164.69 182.212 204.674 217.229 204.674C251.189 204.674 270.811 164.619 270.811 131.998M217.229 200.164C199.985 200.164 197.854 157.997 197.854 126.186C197.854 97.5279 200.231 61.7187 217.229 61.7187C233.081 61.7187 236.058 97.5279 236.058 126.186C236.058 158.014 234.737 200.164 217.229 200.164ZM312.714 106.81H312.45V57.2448H312.186L281.943 76.8315V200.129H312.45V133.319C312.45 85.3039 336.317 83.7186 354.882 94.3222V58.513C331.279 52.1544 317.223 72.6042 312.714 106.793M360.994 30.4011C360.994 41.815 368.956 50.5691 379.823 50.5691C390.163 50.5691 398.653 41.2866 398.653 30.4011C398.653 19.0049 390.691 10.2508 379.823 10.2508C369.484 10.2508 360.994 19.5333 360.994 30.4011ZM363.9 200.429H393.615V57.2448H393.351L363.9 76.0741V200.429ZM471.856 200.164H503.156C502.892 190.353 502.628 180.789 502.628 170.996V107.057C502.628 75.2286 484.045 57.2448 457.8 57.2448C431.274 57.2448 408.992 78.3815 409.538 114.543H411.652C414.576 99.6944 426.236 79.5265 445.33 79.5265C463.912 79.5265 471.856 95.1853 471.856 117.995V130.184C448.782 122.24 408.728 130.184 408.728 168.653C408.728 187.482 420.406 204.991 442.423 204.991C455.687 204.991 466.29 196.184 471.856 178.2V200.164ZM456.004 190.618C445.928 190.618 441.155 177.354 441.155 164.091C441.155 149.507 448.306 131.206 471.909 132.791V161.431C471.909 176.033 465.286 190.618 456.057 190.618"></path>
</svg>