<svg width="700" height="700" viewBox="0 0 700 700" fill="none" xmlns="http://www.w3.org/2000/svg">
<circle cx="350" cy="350" r="350" fill="white"/>
<circle cx="350" cy="350" r="335" fill="#1A1312"/>
<path d="M442.228 484H403.263L361.563 331.046C358.829 321.476 354.841 304.329 349.601 279.605C346.638 292.822 344.132 303.873 342.081 312.76C340.03 321.646 324.479 378.727 295.426 484H256.461L185.538 243.204H219.547L262.784 396.158C267.911 415.299 272.639 435.009 276.969 455.289C279.703 442.757 282.836 429.085 286.368 414.273C290.014 399.462 305.851 342.439 333.878 243.204H365.152L407.022 393.082C413.403 417.577 418.416 438.313 422.062 455.289L423.6 449.308C426.676 436.205 429.182 425.553 431.119 417.35C433.056 409.033 449.063 350.984 479.142 243.204H513.15L442.228 484Z" fill="white"/>
</svg>
