<svg width="180" height="180" viewBox="0 0 180 180" fill="none" xmlns="http://www.w3.org/2000/svg">
<path d="M180 90C180 139.706 139.706 180 90 180C40.2944 180 0 139.706 0 90C0 40.2944 40.2944 0 90 0C139.706 0 180 40.2944 180 90Z" fill="white"/>
<path d="M122.424 140.977H108.725L94.0653 87.2036C93.104 83.8391 91.7021 77.8109 89.8596 69.1191C88.8182 73.7654 87.937 77.6507 87.216 80.7749C86.495 83.8992 81.0276 103.966 70.8138 140.977H57.1152L32.1814 56.3218H44.1376L59.3382 110.095C61.1406 116.824 62.8029 123.753 64.325 130.883C65.2863 126.477 66.3877 121.67 67.6294 116.463C68.9112 111.256 74.4787 91.2091 84.3321 56.3218H95.327L110.047 109.013C112.29 117.625 114.052 124.915 115.334 130.883L115.875 128.78C116.956 124.174 117.838 120.429 118.518 117.545C119.199 114.621 124.827 94.2131 135.401 56.3218H147.358L122.424 140.977Z" fill="black"/>
</svg>
